<svg xmlns="http://www.w3.org/2000/svg" xmlns:xlink="http://www.w3.org/1999/xlink" width="25" height="25" viewBox="0 0 25 25">
    <defs>
        <path id="a" d="M12.492 11.785c2.662 0 4.82-2.11 4.82-4.714 0-2.603-2.158-4.714-4.82-4.714-2.662 0-4.82 2.11-4.82 4.714 0 2.604 2.158 4.714 4.82 4.714zm0 2.358c-3.993 0-7.23-3.166-7.23-7.072C5.263 3.166 8.5 0 12.493 0c3.993 0 7.23 3.166 7.23 7.071 0 3.906-3.237 7.072-7.23 7.072zm12.493 9.806c.06.161-.062.562-.373.656l-1.268.385c-.164.05-.57-.091-.614-.209-1.388-3.807-5.156-5.924-10.238-5.924-4.922 0-8.606 1.979-10.096 5.56-.092.22-.577.58-.74.53L.467 24.58c-.35-.107-.515-.51-.457-.666C1.79 19.126 6.49 16.5 12.492 16.5c6.014 0 10.724 2.643 12.493 7.449z"/>
    </defs>
    <use fill="#FFF" fill-rule="nonzero" xlink:href="#a"/>
</svg>
