<?xml version="1.0" standalone="no"?>
<!DOCTYPE svg PUBLIC "-//W3C//DTD SVG 1.1//EN" "http://www.w3.org/Graphics/SVG/1.1/DTD/svg11.dtd">
<svg xmlns="http://www.w3.org/2000/svg">
<metadata>Generated by Fontastic.me</metadata>
<defs>
<font id="untitled-font-13" horiz-adv-x="512">
<font-face font-family="untitled-font-13" units-per-em="512" ascent="480" descent="-32"/>
<missing-glyph horiz-adv-x="512" />

<glyph glyph-name="icon-password-hidden" unicode="&#109;" d="M256 79c-63 0-124 31-180 84-20 18-38 37-53 56-5 7-10 13-14 19-3 3-5 6-6 7-4 7-4 15 0 22 1 1 3 4 6 7 4 6 9 12 14 19 15 19 33 38 53 56 56 53 117 84 180 84 63 0 124-31 180-84 20-18 38-37 53-56 5-7 10-13 14-19 3-3 5-6 6-7 4-7 4-15 0-22-1-1-3-4-6-7-4-6-9-12-14-19-15-19-33-38-53-56-56-53-117-84-180-84z m-202 165c14-18 30-36 48-52 50-46 103-74 154-74 51 0 104 28 154 74 18 16 34 34 48 52 4 4 7 8 10 12-3 4-6 8-10 12-14 18-30 36-48 52-50 46-103 74-154 74-51 0-104-28-154-74-18-16-34-34-48-52-4-4-7-8-10-12 3-4 6-8 10-12z m202-86c-54 0-98 44-98 98 0 54 44 98 98 98 54 0 98-44 98-98 0-54-44-98-98-98z m0 39c33 0 59 26 59 59 0 33-26 59-59 59-33 0-59-26-59-59 0-33 26-59 59-59z"/>
<glyph glyph-name="icon-youtube" unicode="&#110;" d="M312 157l0-61c0-13-3-19-11-19-4 0-8 2-13 6l0 86c5 5 9 7 13 7 8 0 11-7 11-19z m97-1l0-13-26 0 0 13c0 13 5 20 13 20 9 0 13-7 13-20z m-276 63l31 0 0 26-90 0 0-26 30 0 0-163 29 0z m82-163l26 0 0 141-26 0 0-108c-5-8-11-12-16-12-3 0-5 2-6 6 0 1 0 4 0 10l0 104-26 0 0-112c0-10 1-16 3-20 2-8 8-11 16-11 9 0 19 6 29 17z m123 42l0 57c0 13-1 22-3 28-3 10-10 16-20 16-9 0-18-5-27-16l0 62-25 0 0-189 25 0 0 14c9-11 18-16 27-16 10 0 17 5 20 16 2 6 3 15 3 28z m96 3l0 4-26 0c0-10 0-16 0-18-2-6-5-10-12-10-8 0-13 7-13 20l0 25 51 0 0 29c0 15-2 26-7 33-8 10-18 15-31 15-13 0-23-5-30-15-6-7-8-18-8-33l0-49c0-15 3-27 8-33 8-10 18-15 31-15 13 0 24 5 31 15 3 5 5 10 6 16 0 2 0 8 0 16z m-173 261l0 60c0 13-4 20-13 20-8 0-12-7-12-20l0-60c0-13 4-20 12-20 9 0 13 7 13 20z m205-215c0-32 0-68-7-100-6-22-24-39-46-41-53-6-106-6-159-6-52 0-106 0-158 6-22 2-41 19-46 41-7 32-7 68-7 100 0 34 0 68 7 100 6 23 24 40 46 42 52 6 106 6 158 6 53 0 106 0 159-6 22-2 41-19 46-42 7-32 7-66 7-100z m-285 365l-19-75-21 75-30 0c6-18 12-36 19-53 9-27 14-47 17-61l0-77 29 0 0 77 34 114z m106-95l0-50c0-15-3-27-8-34-7-10-17-14-31-14-12 0-22 4-30 14-5 8-8 19-8 34l0 50c0 15 3 26 8 33 8 10 18 15 30 15 14 0 24-5 31-15 5-7 8-18 8-33z m95 46l-26 0 0-109c-5-8-11-12-16-12-3 0-5 2-6 6 0 1 0 4 0 10l0 105-26 0 0-112c0-11 1-18 2-22 3-7 9-10 17-10 9 0 19 5 29 17l0-15 26 0z"/>
<glyph glyph-name="icon-wishlist" unicode="&#111;" d="M283 445c52 55 137 55 190 0 52-56 52-146 0-201l-199-211c-5-5-12-8-18-7-6-1-13 2-18 7l-199 211c-52 55-52 145 0 201 53 55 138 55 190 0l27-28z m155-165c33 36 33 93 0 128-33 35-88 35-121 0l-44-46c-9-10-25-10-34 0l-44 46c-33 35-88 35-121 0-33-35-33-92 0-128l182-193z m-182-193z"/>
<glyph glyph-name="icon-whatsapp" unicode="&#112;" d="M322 234c5 0 58-28 61-32 0-2 0-3 0-5 0-8-2-17-5-25-8-18-38-30-57-30-15 0-48 14-62 21-46 21-75 57-104 99-12 18-23 40-23 63l0 3c1 21 9 36 24 51 5 5 11 7 17 7 4 0 8-1 12-1 9 0 11-2 14-11 2-5 19-50 19-53 0-12-22-26-22-34 0-2 0-3 1-5 7-15 21-33 34-45 15-14 31-23 49-33 2-1 4-2 7-2 10 0 26 32 35 32z m-67-173c113 0 205 92 205 205 0 113-92 205-205 205-113 0-205-92-205-205 0-43 14-85 39-120l-25-76 79 25c33-22 73-34 112-34z m0 451c136 0 247-110 247-246 0-136-111-246-247-246-41 0-82 10-119 30l-136-43 44 132c-23 38-35 82-35 127 0 136 111 246 246 246z"/>
<glyph glyph-name="icon-twitter" unicode="&#113;" d="M491 418c-18-8-37-13-58-16 21 13 37 33 45 56-20-12-42-20-64-24-19 19-45 31-74 31-56 0-101-45-101-100 0-8 1-16 3-23-84 4-158 44-208 105-8-15-13-32-13-51 0-35 17-66 44-84-16 1-32 6-45 13l0-1c0-49 35-90 81-99-9-2-18-3-27-3-6 0-13 0-19 1 13-40 50-69 94-70-34-27-78-43-125-43-8 0-16 1-24 2 45-29 98-46 155-46 185 0 286 154 286 287 0 4 0 9 0 13 19 14 37 32 50 52z"/>
<glyph glyph-name="icon-tick" unicode="&#114;" d="M479 445c-5 6-14 5-19 0l-275-303-132 132c-6 6-15 6-20 1l-23-23c-6-6-5-15 0-20l165-165c5-6 14-6 19 0l309 335c5 6 4 15-1 20z"/>
<glyph glyph-name="icon-search" unicode="&#115;" d="M360 195l142-142c5-6 6-15 0-20l-23-23c-5-5-14-6-20 0l-142 142c-33-24-74-38-118-38-110 0-199 89-199 199 0 110 89 199 199 199 110 0 199-89 199-199 0-44-14-85-38-118z m-161-24c79 0 142 63 142 142 0 78-63 142-142 142-78 0-142-64-142-142 0-79 64-142 142-142z"/>
<glyph glyph-name="icon-plus" unicode="&#116;" d="M224 288l-208 0c-9 0-16-7-16-16l0-32c0-9 7-16 16-16l208 0 0-208c0-9 7-16 16-16l32 0c9 0 16 7 16 16l0 208 208 0c9 0 16 7 16 16l0 32c0 9-7 16-16 16l-208 0 0 208c0 9-7 16-16 16l-32 0c-9 0-16-7-16-16z"/>
<glyph glyph-name="icon-password-visible" unicode="&#117;" d="M102 202c3-3 5-5 8-7l-28-28c-2 2-4 4-6 6-20 18-38 37-53 56-5 7-10 13-14 18-3 4-5 6-6 8-4 7-4 15 0 22 1 1 3 4 6 7 4 6 9 12 14 19 15 19 33 38 53 56 56 52 117 84 180 84 28 0 56-7 83-18l-30-31c-18 6-35 10-53 10-51 0-104-28-154-74-18-16-34-34-48-52-4-4-7-8-10-12 3-4 6-8 10-12 14-18 30-36 48-52z m407 75c4-7 4-15 0-22-1-2-3-4-6-8-4-5-9-11-14-18-15-19-33-38-53-56-56-53-117-84-180-84-23 0-47 4-69 12l31 32c13-3 25-5 38-5 51 0 104 27 154 74 18 16 34 34 48 52 4 4 7 8 10 12-3 4-6 8-10 12-13 17-29 34-45 49l27 28c18-17 35-34 49-52 5-7 10-13 14-19 3-3 5-6 6-7z m-95 166l29-29-335-335-29 29z"/>
<glyph glyph-name="icon-phone" unicode="&#118;" d="M369 190c-12-10-21-25-28-42l-7-19-20 6c-59 15-174 131-185 169l-6 20 19 8c17 7 31 16 41 27-7 31-33 65-57 82-27-7-63-38-79-77 9-32 51-97 104-155 68-75 147-131 224-155 38 16 69 53 76 81-12 21-53 49-82 55z m-61-3c10 19 24 35 41 47l6 4 8 0c49-3 119-51 134-91l2-6-1-6c-6-47-53-107-114-127l-7-3-7 2c-165 46-353 252-370 355l-1 6 2 5c21 62 81 111 127 116l8 0 6-3c40-24 83-77 89-130l1-9-5-7c-10-15-25-28-42-39 11-13 28-33 46-51 28-29 56-52 77-63z"/>
<glyph glyph-name="icon-alert" unicode="&#97;" d="M242 439c8 12 20 12 28 0l228-366c8-12 2-22-11-22l-462 0c-14 0-19 10-11 22z m-12-145l0-102c0-7 6-13 13-13l26 0c7 0 13 6 13 13l0 102c0 8-6 13-13 13l-26 0c-7 0-13-6-13-13z m0-153l0-26c0-7 6-13 13-13l26 0c7 0 13 6 13 13l0 26c0 7-6 13-13 13l-26 0c-7 0-13-6-13-13z"/>
<glyph glyph-name="icon-arrow-left" unicode="&#98;" d="M498 284c8 0 14-6 14-14l0-28c0-8-6-14-14-14l-384 0 175-175c5-6 5-15 0-20l-23-23c-6-6-14-6-20 0l-236 236c-6 6-6 14 0 20l236 236c6 6 15 5 20 0l23-23c5-5 5-14 0-20l-175-175z"/>
<glyph glyph-name="icon-arrow-right" unicode="&#99;" d="M14 284c-8 0-14-6-14-14l0-28c0-8 6-14 14-14l384 0-175-175c-5-6-5-15 0-20l23-23c6-6 14-6 20 0l236 236c6 6 6 14 0 20l-236 236c-6 6-15 5-20 0l-23-23c-5-5-5-14 0-20l175-175z"/>
<glyph glyph-name="icon-chevron-down" unicode="&#100;" d="M53 388c-6 6-15 6-20 0l-23-23c-6-5-6-14 0-19l236-236c6-6 14-6 20 0l236 236c6 5 5 14 0 19l-23 23c-5 6-14 6-20 0l-203-203z"/>
<glyph glyph-name="icon-chevron-up" unicode="&#101;" d="M53 110c-6-6-15-6-20-1l-23 23c-6 6-6 15 0 20l236 236c6 6 14 6 20 0l236-236c6-5 5-14 0-20l-23-23c-5-5-14-5-20 1l-203 203z"/>
<glyph glyph-name="icon-close" unicode="&#102;" d="M213 256l-203-203c-5-6-6-15 0-20l23-23c5-5 14-5 20 0l203 203 203-203c6-5 15-5 20 0l23 23c6 5 5 14 0 20l-203 203 203 203c5 6 6 15 0 20l-23 23c-5 5-14 5-20 0l-203-203-203 203c-6 5-15 5-20 0l-23-23c-6-5-5-14 0-20z"/>
<glyph glyph-name="icon-facebook" unicode="&#103;" d="M380 508c-8 2-36 4-68 4-67 0-114-41-114-117l0-65-76 0 0-88 76 0 0-226 92 0 0 226 75 0 12 88-87 0 0 57c0 25 7 43 43 43l47 0z"/>
<glyph glyph-name="icon-info" unicode="&#104;" d="M256 0c-141 0-256 115-256 256 0 141 115 256 256 256 141 0 256-115 256-256 0-141-115-256-256-256z m0 57c110 0 199 89 199 199 0 110-89 199-199 199-110 0-199-89-199-199 0-110 89-199 199-199z m-28 213c0 8 6 14 14 14l28 0c8 0 14-6 14-14l0-114c0-7-6-14-14-14l-28 0c-8 0-14 6-14 14z m0 85c0 8 6 15 14 15l28 0c8 0 14-6 14-15l0-28c0-8-6-14-14-14l-28 0c-8 0-14 6-14 14z"/>
<glyph glyph-name="icon-login" unicode="&#105;" d="M256 279c51 0 93 42 93 93 0 52-42 93-93 93-51 0-93-41-93-93 0-51 42-93 93-93z m0-46c-77 0-140 62-140 139 0 77 63 140 140 140 77 0 140-63 140-140 0-77-63-139-140-139z m241-194c1-3-1-11-7-13-8-2-18-5-24-7-4-1-11 1-12 4-27 75-100 117-198 117-95 0-166-39-195-110-2-5-11-12-14-11-6 2-16 5-23 8-7 2-10 10-9 13 34 94 125 146 241 146 116 0 207-52 241-147z"/>
<glyph glyph-name="icon-menu" unicode="&#106;" d="M0 437c0 6 5 11 11 11l490 0c6 0 11-5 11-11l0-21c0-6-5-11-11-11l-490 0c-6 0-11 5-11 11z m0-170c0 6 5 10 11 10l490 0c6 0 11-4 11-10l0-22c0-6-5-10-11-10l-490 0c-6 0-11 4-11 10z m0-171c0 6 5 11 11 11l490 0c6 0 11-5 11-11l0-21c0-6-5-11-11-11l-490 0c-6 0-11 5-11 11z"/>
<glyph glyph-name="icon-minus" unicode="&#107;" d="M16 288l480 0c9 0 16-7 16-16l0-32c0-9-7-16-16-16l-480 0c-9 0-16 7-16 16l0 32c0 9 7 16 16 16z"/>
<glyph glyph-name="icon-notification" unicode="&#108;" d="M124 140c4 18 8 38 11 61 2 13 3 20 7 49 16 133 35 169 111 169 78 0 98-38 117-172 3-28 4-34 6-47 4-23 7-42 12-60z m132-93c-30 0-56 19-66 46l132 0c-10-27-36-46-66-46z m209 93l-29 0c-5 19-10 41-14 67-2 13-2 18-6 46-10 76-18 109-36 142-21 39-54 63-101 69l0 25c0 13-10 23-23 23-13 0-23-10-23-23l0-25c-49-5-83-28-105-68-17-33-24-66-33-140-3-29-4-36-6-49-4-26-8-48-13-67l-29 0c-13 0-24-11-24-24 0-13 11-23 24-23l95 0c11-53 58-93 114-93 56 0 103 40 114 93l95 0c13 0 24 10 24 23 0 13-11 24-24 24z"/>
<glyph glyph-name="large-chevron-right" unicode="&#120;" d="M112 48c-3-3-3-8 0-10l32-33c3-3 8-3 10 0l246 246c3 3 3 7 0 10l-246 246c-2 3-7 3-10 0l-32-33c-3-2-3-7 0-10l208-208z"/>
<glyph glyph-name="large-chevron-left" unicode="&#121;" d="M400 48c3-3 3-8 0-10l-32-33c-3-3-8-3-10 0l-246 246c-3 3-3 7 0 10l246 246c2 3 7 3 10 0l32-33c3-2 3-7 0-10l-208-208z"/>
<glyph glyph-name="mail" unicode="&#122;" d="M32 142l122 121-122 122z m435 247l-121-122 121-122z m-291-153l-120-115 388 0-119 120-76-77z m269 177l-393 0 197-199z m-445 32l503 0 0-358-503 0z"/>
<glyph glyph-name="tooltip-icon" unicode="&#65;" d="M383 385c0 81-60 127-145 127-57 0-101-18-133-71-4-8-4-15 4-20l41-26c7-4 14-4 18 2 17 24 29 42 68 42 35 0 59-24 58-58-2-29-35-50-73-75-41-27-67-69-67-109l0-20c0-12 4-15 15-15l62 0c5 0 9 3 9 7l0 15c0 37 30 58 65 80 39 24 78 68 78 121z m-137-312c0 29-23 50-51 50-27 0-51-23-51-50 0-26 24-49 51-49 30 0 52 23 52 49z"/>
<glyph glyph-name="icon-bullet" unicode="&#66;" d="M320 256c0-35-29-64-64-64-35 0-64 29-64 64 0 35 29 64 64 64 35 0 64-29 64-64z"/>
<glyph glyph-name="instagram-icon" unicode="&#69;" d="M339 254c0 47-38 85-85 85-46 0-85-38-85-85 0-46 39-85 85-85 47 0 85 39 85 85z m46 0c0-72-59-130-131-130-72 0-130 58-130 130 0 72 58 131 130 131 72 0 131-59 131-131z m35 136c0-17-13-31-30-31-17 0-31 14-31 31 0 17 14 30 31 30 17 0 30-13 30-30z m-166 73c-37 0-116 3-150-11-11-4-20-10-29-19-9-9-14-17-19-29-13-33-10-113-10-150 0-37-3-116 10-150 5-11 10-20 19-29 9-9 18-14 29-19 34-13 113-10 150-10 37 0 117-3 150 10 12 5 20 10 29 19 9 9 15 18 19 29 14 34 11 113 11 150 0 37 3 117-11 150-4 12-10 20-19 29-9 9-17 15-29 19-33 14-113 11-150 11z m254-209c0-35 1-70-1-105-2-40-12-77-41-106-30-30-66-39-107-41-35-2-70-2-105-2-35 0-70 0-105 2-40 2-77 11-106 41-30 29-39 66-41 106-2 35-2 70-2 105 0 35 0 70 2 105 2 41 11 77 41 107 29 29 66 39 106 41 35 2 70 1 105 1 35 0 70 1 105-1 41-2 77-12 107-41 29-30 39-66 41-107 2-35 1-70 1-105z"/>
<glyph glyph-name="linkedin-icon" unicode="&#70;" d="M114 345l-108 0 0-323 108 0z m6 99c0 32-23 56-59 56-37 0-61-24-61-56 0-31 23-55 59-55l1 0c37 0 61 24 60 55z m160-145l0 46-107 0c0 0 1-31 0-323l107 0 0 180c0 10 1 19 3 26 8 20 26 40 55 40 39 0 55-30 55-73l0-173 107 0 0 185c0 99-53 145-124 145-57 0-82-31-96-53z"/>
<glyph glyph-name="download-icon" unicode="&#119;" d="M256 512c9 0 16-7 16-16l0-288 133 133c6 6 16 6 22 0l10-10c6-6 6-16 0-22l-170-170c-6-6-16-6-22 0l-170 170c-6 6-6 16 0 22l10 10c6 6 16 6 22 0l133-133 0 288c0 9 7 16 16 16z m-240-448l480 0c9 0 16-7 16-16l0-32c0-9-7-16-16-16l-480 0c-9 0-16 7-16 16l0 32c0 9 7 16 16 16z"/>
<glyph glyph-name="refresh-icon" unicode="&#67;" d="M110 411c-46-37-73-94-73-155 0-111 90-201 201-201l0-37c-132 0-238 107-238 238 0 72 32 138 86 183l-86 0 0 36 146 0 0-146-36 0z m292-310c46 37 73 94 73 155 0 111-90 201-201 201l0 37c132 0 238-107 238-238 0-72-32-138-86-183l86 0 0-36-146 0 0 146 36 0z"/>
<glyph glyph-name="chat-icon" unicode="&#68;" d="M142 17c-17-11-40 1-40 21l0 103-25 0c-43 0-77 34-77 77l0 204c0 43 34 77 77 77l358 0c43 0 77-34 77-77l0-204c0-43-34-77-77-77l-107 0z m164 171c4 3 9 4 14 4l115 0c14 0 26 11 26 26l0 204c0 15-12 26-26 26l-358 0c-14 0-26-11-26-26l0-204c0-15 12-26 26-26l51 0c14 0 26-11 26-26l0-80z"/>
</font>
</defs>
</svg>
